<svg width="28" height="33" viewBox="0 0 28 33" fill="none" xmlns="http://www.w3.org/2000/svg">
<path d="M14.4813 28.05C14.8313 28.0225 15.1302 27.8919 15.3781 27.6581C15.626 27.4244 15.75 27.1425 15.75 26.8125C15.75 26.4275 15.6188 26.1181 15.3563 25.8844C15.0938 25.6506 14.7583 25.5475 14.35 25.575C13.1542 25.6575 11.8854 25.3481 10.5437 24.6469C9.20208 23.9456 8.35625 22.6737 8.00625 20.8312C7.94792 20.5287 7.79479 20.2812 7.54688 20.0887C7.29896 19.8962 7.01458 19.8 6.69375 19.8C6.28542 19.8 5.95 19.9444 5.6875 20.2331C5.425 20.5219 5.3375 20.8587 5.425 21.2437C5.92083 23.7463 7.0875 25.5337 8.925 26.6062C10.7625 27.6787 12.6146 28.16 14.4813 28.05ZM14 33C10.0042 33 6.67188 31.7075 4.00313 29.1225C1.33438 26.5375 0 23.32 0 19.47C0 16.72 1.15938 13.7294 3.47813 10.4981C5.79688 7.26687 9.30417 3.7675 14 0C18.6958 3.7675 22.2031 7.26687 24.5219 10.4981C26.8406 13.7294 28 16.72 28 19.47C28 23.32 26.6656 26.5375 23.9969 29.1225C21.3281 31.7075 17.9958 33 14 33ZM14 29.7C17.0333 29.7 19.5417 28.7306 21.525 26.7919C23.5083 24.8531 24.5 22.4125 24.5 19.47C24.5 17.4625 23.6177 15.1938 21.8531 12.6637C20.0885 10.1337 17.4708 7.37 14 4.3725C10.5292 7.37 7.91146 10.1337 6.14687 12.6637C4.38229 15.1938 3.5 17.4625 3.5 19.47C3.5 22.4125 4.49167 24.8531 6.475 26.7919C8.45833 28.7306 10.9667 29.7 14 29.7Z" fill="#2CE37E"/>
</svg>
