<svg width="20" height="20" viewBox="0 0 20 20" fill="none" xmlns="http://www.w3.org/2000/svg">
<path d="M10 17.2727C7.9697 17.2727 6.25 16.5682 4.84091 15.1591C3.43182 13.75 2.72727 12.0303 2.72727 10C2.72727 7.9697 3.43182 6.25 4.84091 4.84091C6.25 3.43182 7.9697 2.72727 10 2.72727C12.0303 2.72727 13.75 3.43182 15.1591 4.84091C16.5682 6.25 17.2727 7.9697 17.2727 10C17.2727 12.0303 16.5682 13.75 15.1591 15.1591C13.75 16.5682 12.0303 17.2727 10 17.2727ZM10 15.4545C11.5152 15.4545 12.803 14.9242 13.8636 13.8636C14.9242 12.803 15.4545 11.5152 15.4545 10C15.4545 9.74242 15.4356 9.48864 15.3977 9.23864C15.3598 8.98864 15.303 8.74242 15.2273 8.5C15 8.54545 14.7727 8.57955 14.5455 8.60227C14.3182 8.625 14.0909 8.63636 13.8636 8.63636C12.9091 8.63636 12 8.45455 11.1364 8.09091C10.2727 7.72727 9.5 7.19697 8.81818 6.5C8.39394 7.36364 7.81061 8.11364 7.06818 8.75C6.32576 9.38636 5.48485 9.84848 4.54545 10.1364C4.59091 11.6212 5.14015 12.8788 6.19318 13.9091C7.24621 14.9394 8.51515 15.4545 10 15.4545ZM4.90909 8.04545C5.57576 7.69697 6.08333 7.29167 6.43182 6.82955C6.7803 6.36742 7.12121 5.81818 7.45455 5.18182C6.87879 5.48485 6.37121 5.88258 5.93182 6.375C5.49242 6.86742 5.15152 7.42424 4.90909 8.04545ZM7.72727 11.8182C7.4697 11.8182 7.25379 11.7311 7.07955 11.5568C6.9053 11.3826 6.81818 11.1667 6.81818 10.9091C6.81818 10.6515 6.9053 10.4356 7.07955 10.2614C7.25379 10.0871 7.4697 10 7.72727 10C7.98485 10 8.20076 10.0871 8.375 10.2614C8.54924 10.4356 8.63636 10.6515 8.63636 10.9091C8.63636 11.1667 8.54924 11.3826 8.375 11.5568C8.20076 11.7311 7.98485 11.8182 7.72727 11.8182ZM13.8636 6.81818H14.1364C14.2273 6.81818 14.3182 6.81061 14.4091 6.79545C13.9091 6.11364 13.2765 5.56818 12.5114 5.15909C11.7462 4.75 10.9091 4.54545 10 4.54545H9.72727C9.63636 4.54545 9.55303 4.55303 9.47727 4.56818C10.0682 5.25 10.6932 5.79545 11.3523 6.20455C12.0114 6.61364 12.8485 6.81818 13.8636 6.81818ZM12.2727 11.8182C12.0152 11.8182 11.7992 11.7311 11.625 11.5568C11.4508 11.3826 11.3636 11.1667 11.3636 10.9091C11.3636 10.6515 11.4508 10.4356 11.625 10.2614C11.7992 10.0871 12.0152 10 12.2727 10C12.5303 10 12.7462 10.0871 12.9205 10.2614C13.0947 10.4356 13.1818 10.6515 13.1818 10.9091C13.1818 11.1667 13.0947 11.3826 12.9205 11.5568C12.7462 11.7311 12.5303 11.8182 12.2727 11.8182ZM0 4.54545V1.81818C0 1.31818 0.17803 0.890152 0.534091 0.534091C0.890152 0.17803 1.31818 0 1.81818 0H4.54545V1.81818H1.81818V4.54545H0ZM4.54545 20H1.81818C1.31818 20 0.890152 19.822 0.534091 19.4659C0.17803 19.1098 0 18.6818 0 18.1818V15.4545H1.81818V18.1818H4.54545V20ZM15.4545 20V18.1818H18.1818V15.4545H20V18.1818C20 18.6818 19.822 19.1098 19.4659 19.4659C19.1098 19.822 18.6818 20 18.1818 20H15.4545ZM18.1818 4.54545V1.81818H15.4545V0H18.1818C18.6818 0 19.1098 0.17803 19.4659 0.534091C19.822 0.890152 20 1.31818 20 1.81818V4.54545H18.1818Z" fill="white"/>
</svg>
