<svg width="34" height="25" viewBox="0 0 34 25" fill="none" xmlns="http://www.w3.org/2000/svg">
<path d="M22.9027 8.7793L15.6098 3.11621L15.6019 3.11035L15.5941 3.11621L8.30214 8.7793L8.30995 8.78906L8.29726 8.77344V22.2695H5.89198V10.6514L5.87148 10.667L3.69374 12.3613L2.2494 10.4004L15.6019 0.015625L28.9535 10.3994L27.5101 12.3301L25.3334 10.667L25.3129 10.6514V22.2695H22.9076V8.78906H22.9154L22.9027 8.7793Z" fill="#0097B2" stroke="white" stroke-width="0.025"/>
<path d="M28.3477 18.6292C29.1827 18.6293 29.8722 18.7088 30.416 18.8685C30.9599 19.0282 31.3575 19.2677 31.6104 19.5853C32.1214 20.227 32.9147 20.5467 33.9873 20.5492V24.3675C32.3518 24.3659 31.2705 24.0465 30.7373 23.4124C30.196 22.7685 29.3986 22.4467 28.3477 22.4466C27.2966 22.4466 26.4993 22.7684 25.958 23.4124C25.4235 24.0482 24.3379 24.3685 22.6953 24.3685C21.0529 24.3685 19.9599 24.0482 19.4111 23.4124C18.8557 22.7686 18.051 22.4466 17 22.4466C15.9209 22.4466 15.1234 22.7681 14.6104 23.4124C14.3575 23.73 13.9599 23.9696 13.416 24.1292C12.8722 24.2889 12.1827 24.3685 11.3477 24.3685C10.5126 24.3685 9.82313 24.2889 9.2793 24.1292C8.73547 23.9696 8.33785 23.73 8.08496 23.4124C7.57194 22.7682 6.77433 22.4467 5.69531 22.4466C4.6443 22.4466 3.84696 22.7684 3.30566 23.4124C2.77256 24.0467 1.67679 24.3659 0.0126953 24.3675V20.5492C1.08551 20.5467 1.88599 20.227 2.41113 19.5853C2.67109 19.2677 3.07376 19.0282 3.62109 18.8685C4.16852 18.7088 4.86017 18.6292 5.69531 18.6292C6.53032 18.6293 7.21987 18.7089 7.76367 18.8685C8.30743 19.0282 8.70516 19.2678 8.95801 19.5853C9.47109 20.2295 10.2686 20.5501 11.3477 20.5501C12.4267 20.5501 13.2243 20.2295 13.7373 19.5853C13.9902 19.2677 14.3878 19.0282 14.9316 18.8685C15.4755 18.7088 16.1649 18.6292 17 18.6292C18.614 18.6292 19.707 18.9492 20.2842 19.5853C20.8678 20.2289 21.6725 20.5501 22.6953 20.5501C23.7743 20.5501 24.5719 20.2296 25.085 19.5853C25.3378 19.2677 25.7354 19.0282 26.2793 18.8685C26.8231 18.7089 27.5126 18.6292 28.3477 18.6292Z" fill="#0097B2" stroke="white" stroke-width="0.025"/>
</svg>
