<svg width="18" height="20" viewBox="0 0 18 20" fill="none" xmlns="http://www.w3.org/2000/svg">
<path d="M8.97061 2.45438C10.7325 2.45438 12.3946 2.83423 13.957 3.59392C15.5195 4.35361 16.8242 5.4514 17.8714 6.8873C17.9878 7.03757 18.0252 7.17114 17.9836 7.28801C17.942 7.40489 17.8714 7.50507 17.7717 7.58855C17.6719 7.67203 17.5556 7.7096 17.4226 7.70125C17.2896 7.6929 17.1733 7.62194 17.0736 7.48837C16.1594 6.18605 14.9834 5.18843 13.5457 4.49553C12.1079 3.80262 10.5829 3.45617 8.97061 3.45617C7.35832 3.45617 5.84577 3.80262 4.43295 4.49553C3.02012 5.18843 1.84831 6.18605 0.917505 7.48837C0.817776 7.63864 0.701426 7.72212 0.568454 7.73882C0.435482 7.75552 0.319132 7.72212 0.219403 7.63864C0.103053 7.55516 0.0324119 7.4508 0.00747966 7.32558C-0.0174525 7.20036 0.0199458 7.07096 0.119675 6.93739C1.15021 5.51819 2.44252 4.41622 3.99663 3.63148C5.55074 2.84675 7.20873 2.45438 8.97061 2.45438ZM8.97061 4.80859C11.2145 4.80859 13.1426 5.55993 14.7549 7.06261C16.3672 8.5653 17.1733 10.427 17.1733 12.6476C17.1733 13.4824 16.8783 14.1795 16.2882 14.7388C15.6981 15.2982 14.9793 15.5778 14.1316 15.5778C13.2839 15.5778 12.5567 15.2982 11.95 14.7388C11.3433 14.1795 11.04 13.4824 11.04 12.6476C11.04 12.0966 10.8364 11.6333 10.4291 11.2576C10.0219 10.8819 9.53574 10.6941 8.97061 10.6941C8.40548 10.6941 7.9193 10.8819 7.51207 11.2576C7.10485 11.6333 6.90123 12.0966 6.90123 12.6476C6.90123 14.2671 7.3791 15.6196 8.33484 16.7048C9.29057 17.7901 10.5247 18.5498 12.0373 18.9839C12.1869 19.034 12.2866 19.1175 12.3365 19.2343C12.3863 19.3512 12.3946 19.4764 12.3614 19.61C12.3281 19.7269 12.2617 19.8271 12.1619 19.9106C12.0622 19.994 11.9375 20.0191 11.7879 19.9857C10.0593 19.5516 8.64649 18.6875 7.54947 17.3936C6.45245 16.0996 5.90395 14.5176 5.90395 12.6476C5.90395 11.8128 6.20313 11.1115 6.8015 10.5438C7.39988 9.97615 8.12291 9.69231 8.97061 9.69231C9.8183 9.69231 10.5413 9.97615 11.1397 10.5438C11.7381 11.1115 12.0373 11.8128 12.0373 12.6476C12.0373 13.1986 12.245 13.6619 12.6606 14.0376C13.0761 14.4132 13.5664 14.6011 14.1316 14.6011C14.6967 14.6011 15.1787 14.4132 15.5776 14.0376C15.9766 13.6619 16.176 13.1986 16.176 12.6476C16.176 10.7108 15.4696 9.08289 14.0568 7.76386C12.644 6.44484 10.9569 5.78533 8.99554 5.78533C7.0342 5.78533 5.34713 6.44484 3.9343 7.76386C2.52148 9.08289 1.81506 10.7024 1.81506 12.6225C1.81506 13.0233 1.85246 13.5241 1.92726 14.1252C2.00206 14.7263 2.18074 15.4275 2.4633 16.229C2.51317 16.3792 2.50901 16.5128 2.45084 16.6297C2.39266 16.7466 2.29709 16.8301 2.16412 16.8801C2.03114 16.9302 1.90233 16.9261 1.77767 16.8676C1.65301 16.8092 1.56574 16.7132 1.51588 16.5796C1.26656 15.9284 1.08788 15.2815 0.979836 14.6386C0.871796 13.9958 0.817776 13.3321 0.817776 12.6476C0.817776 10.427 1.61976 8.5653 3.22373 7.06261C4.82771 5.55993 6.74333 4.80859 8.97061 4.80859ZM8.97061 0C10.0344 0 11.0732 0.129398 12.0871 0.388193C13.101 0.646989 14.0817 1.01849 15.0291 1.50268C15.1787 1.58617 15.266 1.68634 15.2909 1.80322C15.3159 1.9201 15.3034 2.03697 15.2535 2.15385C15.2037 2.27072 15.1205 2.36255 15.0042 2.42934C14.8878 2.49612 14.7466 2.48778 14.5804 2.40429C13.6994 1.95349 12.7894 1.60704 11.8503 1.36494C10.9112 1.12284 9.95127 1.00179 8.97061 1.00179C8.00656 1.00179 7.05914 1.11449 6.12834 1.33989C5.19753 1.5653 4.30828 1.9201 3.46059 2.40429C3.32762 2.48778 3.19465 2.50865 3.06167 2.46691C2.9287 2.42516 2.82897 2.33751 2.76249 2.20394C2.696 2.07036 2.67938 1.94931 2.71262 1.84079C2.74587 1.73226 2.82897 1.63626 2.96195 1.55277C3.89275 1.05188 4.8651 0.667859 5.87901 0.400716C6.89292 0.133572 7.92345 0 8.97061 0ZM8.97061 7.23792C10.5164 7.23792 11.8461 7.75969 12.9598 8.80322C14.0734 9.84675 14.6302 11.1282 14.6302 12.6476C14.6302 12.7979 14.5845 12.9189 14.4931 13.0107C14.4017 13.1026 14.2812 13.1485 14.1316 13.1485C13.9986 13.1485 13.8822 13.1026 13.7825 13.0107C13.6828 12.9189 13.6329 12.7979 13.6329 12.6476C13.6329 11.3953 13.1717 10.3476 12.2492 9.50447C11.3267 8.6613 10.2338 8.23971 8.97061 8.23971C7.70737 8.23971 6.62282 8.6613 5.71695 9.50447C4.81108 10.3476 4.35815 11.3953 4.35815 12.6476C4.35815 14 4.59085 15.1479 5.05625 16.0912C5.52165 17.0346 6.20313 17.9821 7.10069 18.9338C7.20042 19.034 7.25028 19.1509 7.25028 19.2844C7.25028 19.418 7.20042 19.5349 7.10069 19.6351C7.00096 19.7352 6.88461 19.7853 6.75164 19.7853C6.61867 19.7853 6.50232 19.7352 6.40259 19.6351C5.42192 18.5999 4.6698 17.5438 4.14623 16.4669C3.62265 15.39 3.36086 14.1169 3.36086 12.6476C3.36086 11.1282 3.90937 9.84675 5.00639 8.80322C6.1034 7.75969 7.42481 7.23792 8.97061 7.23792ZM8.94567 12.1467C9.09527 12.1467 9.21577 12.1968 9.30719 12.297C9.39861 12.3971 9.44432 12.514 9.44432 12.6476C9.44432 13.8998 9.8931 14.9267 10.7907 15.7281C11.6882 16.5295 12.7354 16.9302 13.9321 16.9302C14.0318 16.9302 14.1731 16.9219 14.356 16.9052C14.5388 16.8885 14.7299 16.8634 14.9294 16.8301C15.079 16.7967 15.2078 16.8175 15.3159 16.8927C15.4239 16.9678 15.4945 17.0805 15.5278 17.2308C15.561 17.3643 15.5361 17.4812 15.453 17.5814C15.3699 17.6816 15.2618 17.7484 15.1289 17.7818C14.8297 17.8652 14.5679 17.9111 14.3435 17.9195C14.1191 17.9278 13.982 17.932 13.9321 17.932C12.4528 17.932 11.1688 17.4311 10.0801 16.4293C8.99138 15.4275 8.44703 14.167 8.44703 12.6476C8.44703 12.514 8.49274 12.3971 8.58416 12.297C8.67558 12.1968 8.79608 12.1467 8.94567 12.1467Z" fill="#0097B2"/>
</svg>
