<svg width="24" height="25" viewBox="0 0 24 25" fill="none" xmlns="http://www.w3.org/2000/svg">
<path d="M7.33333 17.1053C6.77778 17.1053 6.30556 16.9134 5.91667 16.5296C5.52778 16.1458 5.33333 15.6798 5.33333 15.1316C5.33333 14.5833 5.52778 14.1173 5.91667 13.7336C6.30556 13.3498 6.77778 13.1579 7.33333 13.1579C7.88889 13.1579 8.36111 13.3498 8.75 13.7336C9.13889 14.1173 9.33333 14.5833 9.33333 15.1316C9.33333 15.6798 9.13889 16.1458 8.75 16.5296C8.36111 16.9134 7.88889 17.1053 7.33333 17.1053ZM12 21.0526C11.4444 21.0526 10.9722 20.8607 10.5833 20.477C10.1944 20.0932 10 19.6272 10 19.0789C10 18.5307 10.1944 18.0647 10.5833 17.6809C10.9722 17.2971 11.4444 17.1053 12 17.1053C12.5556 17.1053 13.0278 17.2971 13.4167 17.6809C13.8056 18.0647 14 18.5307 14 19.0789C14 19.6272 13.8056 20.0932 13.4167 20.477C13.0278 20.8607 12.5556 21.0526 12 21.0526ZM7.33333 25C6.77778 25 6.30556 24.8081 5.91667 24.4243C5.52778 24.0406 5.33333 23.5746 5.33333 23.0263C5.33333 22.4781 5.52778 22.0121 5.91667 21.6283C6.30556 21.2445 6.77778 21.0526 7.33333 21.0526C7.88889 21.0526 8.36111 21.2445 8.75 21.6283C9.13889 22.0121 9.33333 22.4781 9.33333 23.0263C9.33333 23.5746 9.13889 24.0406 8.75 24.4243C8.36111 24.8081 7.88889 25 7.33333 25ZM16.6667 17.1053C16.1111 17.1053 15.6389 16.9134 15.25 16.5296C14.8611 16.1458 14.6667 15.6798 14.6667 15.1316C14.6667 14.5833 14.8611 14.1173 15.25 13.7336C15.6389 13.3498 16.1111 13.1579 16.6667 13.1579C17.2222 13.1579 17.6944 13.3498 18.0833 13.7336C18.4722 14.1173 18.6667 14.5833 18.6667 15.1316C18.6667 15.6798 18.4722 16.1458 18.0833 16.5296C17.6944 16.9134 17.2222 17.1053 16.6667 17.1053ZM16.6667 25C16.1111 25 15.6389 24.8081 15.25 24.4243C14.8611 24.0406 14.6667 23.5746 14.6667 23.0263C14.6667 22.4781 14.8611 22.0121 15.25 21.6283C15.6389 21.2445 16.1111 21.0526 16.6667 21.0526C17.2222 21.0526 17.6944 21.2445 18.0833 21.6283C18.4722 22.0121 18.6667 22.4781 18.6667 23.0263C18.6667 23.5746 18.4722 24.0406 18.0833 24.4243C17.6944 24.8081 17.2222 25 16.6667 25ZM21.3333 21.0526C20.7778 21.0526 20.3056 20.8607 19.9167 20.477C19.5278 20.0932 19.3333 19.6272 19.3333 19.0789C19.3333 18.5307 19.5278 18.0647 19.9167 17.6809C20.3056 17.2971 20.7778 17.1053 21.3333 17.1053C21.8889 17.1053 22.3611 17.2971 22.75 17.6809C23.1389 18.0647 23.3333 18.5307 23.3333 19.0789C23.3333 19.6272 23.1389 20.0932 22.75 20.477C22.3611 20.8607 21.8889 21.0526 21.3333 21.0526ZM2.66667 21.0526C2.11111 21.0526 1.63889 20.8607 1.25 20.477C0.861111 20.0932 0.666667 19.6272 0.666667 19.0789C0.666667 18.5307 0.861111 18.0647 1.25 17.6809C1.63889 17.2971 2.11111 17.1053 2.66667 17.1053C3.22222 17.1053 3.69444 17.2971 4.08333 17.6809C4.47222 18.0647 4.66667 18.5307 4.66667 19.0789C4.66667 19.6272 4.47222 20.0932 4.08333 20.477C3.69444 20.8607 3.22222 21.0526 2.66667 21.0526ZM7.2 10.5263C6.62222 10.5263 6.1 10.3564 5.63333 10.0164C5.16667 9.67654 4.84444 9.23246 4.66667 8.68421L4 6.57895H2.66667C1.93333 6.57895 1.30556 6.32127 0.783333 5.80592C0.261111 5.29057 0 4.67105 0 3.94737V0H24V3.94737C24 4.67105 23.7389 5.29057 23.2167 5.80592C22.6944 6.32127 22.0667 6.57895 21.3333 6.57895H20L19.1333 8.81579C18.9333 9.32018 18.6111 9.73136 18.1667 10.0493C17.7222 10.3673 17.2222 10.5263 16.6667 10.5263H7.2ZM2.66667 2.63158V3.94737H21.3333V2.63158H2.66667ZM6.8 6.57895L7.2 7.89474H16.8L17.2 6.57895H6.8Z" fill="#2CE37E"/>
</svg>
