<svg width="15" height="20" viewBox="0 0 15 20" fill="none" xmlns="http://www.w3.org/2000/svg">
<path d="M7.5 20C6.98438 20 6.54297 19.822 6.17578 19.4659C5.80859 19.1098 5.625 18.6818 5.625 18.1818C5.625 17.6818 5.80859 17.2538 6.17578 16.8977C6.54297 16.5417 6.98438 16.3636 7.5 16.3636C8.01562 16.3636 8.45703 16.5417 8.82422 16.8977C9.19141 17.2538 9.375 17.6818 9.375 18.1818C9.375 18.6818 9.19141 19.1098 8.82422 19.4659C8.45703 19.822 8.01562 20 7.5 20ZM1.875 3.63636C1.35938 3.63636 0.917969 3.45833 0.550781 3.10227C0.183594 2.74621 0 2.31818 0 1.81818C0 1.31818 0.183594 0.890152 0.550781 0.534091C0.917969 0.17803 1.35938 0 1.875 0C2.39062 0 2.83203 0.17803 3.19922 0.534091C3.56641 0.890152 3.75 1.31818 3.75 1.81818C3.75 2.31818 3.56641 2.74621 3.19922 3.10227C2.83203 3.45833 2.39062 3.63636 1.875 3.63636ZM1.875 9.09091C1.35938 9.09091 0.917969 8.91288 0.550781 8.55682C0.183594 8.20076 0 7.77273 0 7.27273C0 6.77273 0.183594 6.3447 0.550781 5.98864C0.917969 5.63258 1.35938 5.45455 1.875 5.45455C2.39062 5.45455 2.83203 5.63258 3.19922 5.98864C3.56641 6.3447 3.75 6.77273 3.75 7.27273C3.75 7.77273 3.56641 8.20076 3.19922 8.55682C2.83203 8.91288 2.39062 9.09091 1.875 9.09091ZM1.875 14.5455C1.35938 14.5455 0.917969 14.3674 0.550781 14.0114C0.183594 13.6553 0 13.2273 0 12.7273C0 12.2273 0.183594 11.7992 0.550781 11.4432C0.917969 11.0871 1.35938 10.9091 1.875 10.9091C2.39062 10.9091 2.83203 11.0871 3.19922 11.4432C3.56641 11.7992 3.75 12.2273 3.75 12.7273C3.75 13.2273 3.56641 13.6553 3.19922 14.0114C2.83203 14.3674 2.39062 14.5455 1.875 14.5455ZM13.125 3.63636C12.6094 3.63636 12.168 3.45833 11.8008 3.10227C11.4336 2.74621 11.25 2.31818 11.25 1.81818C11.25 1.31818 11.4336 0.890152 11.8008 0.534091C12.168 0.17803 12.6094 0 13.125 0C13.6406 0 14.082 0.17803 14.4492 0.534091C14.8164 0.890152 15 1.31818 15 1.81818C15 2.31818 14.8164 2.74621 14.4492 3.10227C14.082 3.45833 13.6406 3.63636 13.125 3.63636ZM7.5 14.5455C6.98438 14.5455 6.54297 14.3674 6.17578 14.0114C5.80859 13.6553 5.625 13.2273 5.625 12.7273C5.625 12.2273 5.80859 11.7992 6.17578 11.4432C6.54297 11.0871 6.98438 10.9091 7.5 10.9091C8.01562 10.9091 8.45703 11.0871 8.82422 11.4432C9.19141 11.7992 9.375 12.2273 9.375 12.7273C9.375 13.2273 9.19141 13.6553 8.82422 14.0114C8.45703 14.3674 8.01562 14.5455 7.5 14.5455ZM13.125 14.5455C12.6094 14.5455 12.168 14.3674 11.8008 14.0114C11.4336 13.6553 11.25 13.2273 11.25 12.7273C11.25 12.2273 11.4336 11.7992 11.8008 11.4432C12.168 11.0871 12.6094 10.9091 13.125 10.9091C13.6406 10.9091 14.082 11.0871 14.4492 11.4432C14.8164 11.7992 15 12.2273 15 12.7273C15 13.2273 14.8164 13.6553 14.4492 14.0114C14.082 14.3674 13.6406 14.5455 13.125 14.5455ZM13.125 9.09091C12.6094 9.09091 12.168 8.91288 11.8008 8.55682C11.4336 8.20076 11.25 7.77273 11.25 7.27273C11.25 6.77273 11.4336 6.3447 11.8008 5.98864C12.168 5.63258 12.6094 5.45455 13.125 5.45455C13.6406 5.45455 14.082 5.63258 14.4492 5.98864C14.8164 6.3447 15 6.77273 15 7.27273C15 7.77273 14.8164 8.20076 14.4492 8.55682C14.082 8.91288 13.6406 9.09091 13.125 9.09091ZM7.5 9.09091C6.98438 9.09091 6.54297 8.91288 6.17578 8.55682C5.80859 8.20076 5.625 7.77273 5.625 7.27273C5.625 6.77273 5.80859 6.3447 6.17578 5.98864C6.54297 5.63258 6.98438 5.45455 7.5 5.45455C8.01562 5.45455 8.45703 5.63258 8.82422 5.98864C9.19141 6.3447 9.375 6.77273 9.375 7.27273C9.375 7.77273 9.19141 8.20076 8.82422 8.55682C8.45703 8.91288 8.01562 9.09091 7.5 9.09091ZM7.5 3.63636C6.98438 3.63636 6.54297 3.45833 6.17578 3.10227C5.80859 2.74621 5.625 2.31818 5.625 1.81818C5.625 1.31818 5.80859 0.890152 6.17578 0.534091C6.54297 0.17803 6.98438 0 7.5 0C8.01562 0 8.45703 0.17803 8.82422 0.534091C9.19141 0.890152 9.375 1.31818 9.375 1.81818C9.375 2.31818 9.19141 2.74621 8.82422 3.10227C8.45703 3.45833 8.01562 3.63636 7.5 3.63636Z" fill="white"/>
</svg>
