<svg width="42" height="42" viewBox="0 0 42 42" fill="none" xmlns="http://www.w3.org/2000/svg">
<path d="M3.47363 28.0947C4.44594 30.3808 5.80139 32.3931 7.54004 34.1318C9.27836 35.8702 11.2908 37.225 13.5762 38.1973L12.1279 41.6553C9.37514 40.5273 6.95791 38.9159 4.87695 36.8193C2.79557 34.7223 1.17586 32.2965 0.0166016 29.543L3.47363 28.0947ZM41.6562 29.5439C40.5283 32.2971 38.9162 34.7147 36.8193 36.7959C34.7224 38.8772 32.2964 40.496 29.543 41.6553L28.0947 38.1973C30.3807 37.2249 32.3932 35.8705 34.1318 34.1318C35.8705 32.3932 37.2249 30.3807 38.1973 28.0947L41.6562 29.5439ZM20.8359 20.8486C22.5908 20.8486 24.2518 21.076 25.8184 21.5303C27.385 21.9846 28.8732 22.619 30.2832 23.4336C30.8458 23.7774 31.2919 24.2382 31.6201 24.8164C31.9482 25.3945 32.1122 26.0119 32.1123 26.668V30.2305H9.56055V26.668C9.56062 26.0119 9.72462 25.3945 10.0527 24.8164C10.3399 24.3105 10.717 23.8948 11.1836 23.5684L11.3887 23.4336C12.7988 22.6189 14.2877 21.9846 15.8545 21.5303C17.4209 21.0761 19.0813 20.8487 20.8359 20.8486ZM20.8359 24.5859C19.5494 24.586 18.2942 24.7438 17.0703 25.0576C15.8464 25.3715 14.6853 25.8421 13.5869 26.4697L13.5459 26.4932H28.127L28.0859 26.4697C26.9875 25.842 25.8255 25.3715 24.6016 25.0576C23.3777 24.7438 22.1225 24.5859 20.8359 24.5859ZM20.8359 7.67871C22.4004 7.67871 23.7301 8.22632 24.8252 9.32129C25.9203 10.4163 26.4677 11.7461 26.4678 13.3105C26.4678 14.8751 25.9203 16.2047 24.8252 17.2998C23.7301 18.3949 22.4004 18.9424 20.8359 18.9424C19.2715 18.9423 17.9417 18.3948 16.8467 17.2998C15.7517 16.2047 15.2041 14.875 15.2041 13.3105C15.2041 11.7461 15.7516 10.4163 16.8467 9.32129C17.9417 8.22625 19.2715 7.67877 20.8359 7.67871ZM20.8359 11.417C20.3001 11.417 19.8502 11.5982 19.4873 11.9609C19.1243 12.324 18.9424 12.7744 18.9424 13.3105C18.9424 13.8468 19.1242 14.2971 19.4873 14.6602C19.8503 15.023 20.3 15.204 20.8359 15.2041C21.3721 15.2041 21.8225 15.0232 22.1855 14.6602C22.5486 14.2971 22.7305 13.8468 22.7305 13.3105C22.7304 12.7744 22.5486 12.324 22.1855 11.9609C21.8225 11.598 21.372 11.417 20.8359 11.417ZM13.5762 3.47363C11.2905 4.44595 9.27849 5.80159 7.54004 7.54004C5.80159 9.27849 4.44595 11.2905 3.47363 13.5762L0.0166016 12.1279C1.17582 9.37495 2.7959 6.958 4.87695 4.87695C6.958 2.7959 9.37495 1.17582 12.1279 0.0166016L13.5762 3.47363ZM29.5439 0.015625C32.2972 1.14361 34.7147 2.75664 36.7959 4.85352C38.8768 6.95012 40.4961 9.37513 41.6553 12.1279L38.1973 13.5762C37.225 11.2908 35.8702 9.27836 34.1318 7.54004C32.3931 5.80139 30.3808 4.44594 28.0947 3.47363L29.5439 0.015625Z" fill="white" stroke="white" stroke-width="0.025"/>
</svg>
