<svg width="21" height="21" viewBox="0 0 21 21" fill="none" xmlns="http://www.w3.org/2000/svg">
<path d="M2.1 21C1.5225 21 1.02813 20.743 0.616875 20.2289C0.205625 19.7148 0 19.0969 0 18.375V2.625C0 1.90313 0.205625 1.28516 0.616875 0.771094C1.02813 0.257031 1.5225 0 2.1 0H18.9C19.4775 0 19.9719 0.257031 20.3831 0.771094C20.7944 1.28516 21 1.90313 21 2.625H2.1V18.375H4.2V21H2.1ZM18.9 18.375V7.875H14.7V18.375H18.9ZM14.175 21C13.7375 21 13.3656 20.8086 13.0594 20.4258C12.7531 20.043 12.6 19.5781 12.6 19.0312V7.21875C12.6 6.67188 12.7531 6.20703 13.0594 5.82422C13.3656 5.44141 13.7375 5.25 14.175 5.25H19.425C19.8625 5.25 20.2344 5.44141 20.5406 5.82422C20.8469 6.20703 21 6.67188 21 7.21875V19.0312C21 19.5781 20.8469 20.043 20.5406 20.4258C20.2344 20.8086 19.8625 21 19.425 21H14.175ZM16.8 11.1562C17.0275 11.1562 17.2156 11.0578 17.3644 10.8609C17.5131 10.6641 17.5875 10.4344 17.5875 10.1719C17.5875 9.8875 17.5131 9.65234 17.3644 9.46641C17.2156 9.28047 17.0275 9.1875 16.8 9.1875C16.59 9.1875 16.4062 9.28047 16.2487 9.46641C16.0912 9.65234 16.0125 9.8875 16.0125 10.1719C16.0125 10.4344 16.0912 10.6641 16.2487 10.8609C16.4062 11.0578 16.59 11.1562 16.8 11.1562ZM6.825 21L6.3 18.7031C5.9675 18.3312 5.70938 17.8937 5.52563 17.3906C5.34188 16.8875 5.25 16.3406 5.25 15.75C5.25 15.1594 5.34188 14.6125 5.52563 14.1094C5.70938 13.6062 5.9675 13.1687 6.3 12.7969L6.825 10.5H9.975L10.5 12.7969C10.8325 13.1687 11.0906 13.6062 11.2744 14.1094C11.4581 14.6125 11.55 15.1594 11.55 15.75C11.55 16.3406 11.4581 16.8875 11.2744 17.3906C11.0906 17.8937 10.8325 18.3312 10.5 18.7031L9.975 21H6.825ZM8.4 17.7188C8.855 17.7188 9.23125 17.5273 9.52875 17.1445C9.82625 16.7617 9.975 16.2969 9.975 15.75C9.975 15.2031 9.8175 14.7383 9.5025 14.3555C9.1875 13.9727 8.82 13.7812 8.4 13.7812C7.98 13.7812 7.6125 13.9672 7.2975 14.3391C6.9825 14.7109 6.825 15.1812 6.825 15.75C6.825 16.3188 6.97375 16.7891 7.27125 17.1609C7.56875 17.5328 7.945 17.7188 8.4 17.7188Z" fill="#0097B2"/>
</svg>
