<svg width="38" height="30" viewBox="0 0 38 30" fill="none" xmlns="http://www.w3.org/2000/svg">
<path d="M22.5286 29.5417C22.2571 29.6806 21.9744 29.7917 21.6804 29.875C21.3863 29.9583 21.0583 30 20.6964 30C20.3345 30 19.9726 29.9514 19.6107 29.8542C19.2488 29.7569 18.9321 29.625 18.6607 29.4583C16.806 28.2361 15.4375 26.9861 14.5554 25.7083C13.6732 24.4306 13.2321 23.0833 13.2321 21.6667C13.2321 20.6389 13.481 19.5556 13.9786 18.4167C14.4762 17.2778 15.3357 15.8056 16.5571 14C17.5976 12.4167 18.3214 11.2014 18.7286 10.3542C19.1357 9.50694 19.3393 8.72222 19.3393 8C19.3393 7.05556 19 6.17361 18.3214 5.35417C17.6429 4.53472 16.5798 3.70833 15.1321 2.875C14.8607 2.70833 14.6458 2.51389 14.4875 2.29167C14.3292 2.06944 14.25 1.84722 14.25 1.625C14.25 1.40278 14.3179 1.20139 14.4536 1.02083C14.5893 0.840278 14.7702 0.666667 14.9964 0.5C15.2679 0.333333 15.5732 0.208333 15.9125 0.125C16.2518 0.0416667 16.6024 0 16.9643 0C17.3262 0 17.6655 0.0416667 17.9821 0.125C18.2988 0.208333 18.5929 0.319444 18.8643 0.458333C20.8548 1.59722 22.3363 2.79167 23.3089 4.04167C24.2815 5.29167 24.7679 6.61111 24.7679 8C24.7679 8.97222 24.5304 9.99306 24.0554 11.0625C23.5804 12.1319 22.7548 13.5278 21.5786 15.25C20.4476 16.9167 19.6786 18.1944 19.2714 19.0833C18.8643 19.9722 18.6607 20.8194 18.6607 21.625C18.6607 22.5972 18.9887 23.5347 19.6446 24.4375C20.3006 25.3403 21.3071 26.25 22.6643 27.1667C22.8905 27.3333 23.0714 27.5139 23.2071 27.7083C23.3429 27.9028 23.4107 28.1111 23.4107 28.3333C23.4107 28.5556 23.3429 28.7708 23.2071 28.9792C23.0714 29.1875 22.8452 29.375 22.5286 29.5417ZM35.7607 29.5417C35.4893 29.6806 35.2066 29.7917 34.9125 29.875C34.6185 29.9583 34.2905 30 33.9286 30C33.5667 30 33.2048 29.9514 32.8429 29.8542C32.481 29.7569 32.1643 29.625 31.8929 29.4583C30.0381 28.2361 28.6696 26.9931 27.7875 25.7292C26.9054 24.4653 26.4643 23.125 26.4643 21.7083C26.4643 20.6806 26.7131 19.5833 27.2107 18.4167C27.7083 17.25 28.5679 15.7778 29.7893 14C30.8298 12.4167 31.5536 11.2083 31.9607 10.375C32.3679 9.54167 32.5714 8.76389 32.5714 8.04167C32.5714 7.09722 32.2321 6.20139 31.5536 5.35417C30.875 4.50694 29.8119 3.68056 28.3643 2.875C28.0929 2.70833 27.8893 2.52083 27.7536 2.3125C27.6179 2.10417 27.55 1.88889 27.55 1.66667C27.55 1.44444 27.6065 1.24306 27.7196 1.0625C27.8327 0.881944 28.0024 0.708333 28.2286 0.541667C28.5 0.375 28.8167 0.243056 29.1786 0.145833C29.5405 0.0486111 29.9024 0 30.2643 0C30.6262 0 30.9542 0.0416667 31.2482 0.125C31.5423 0.208333 31.825 0.319444 32.0964 0.458333C34.0869 1.59722 35.5685 2.79167 36.5411 4.04167C37.5137 5.29167 38 6.61111 38 8C38 8.97222 37.7625 9.99306 37.2875 11.0625C36.8125 12.1319 35.9869 13.5417 34.8107 15.2917C33.6798 16.9583 32.9107 18.2361 32.5036 19.125C32.0964 20.0139 31.8929 20.8472 31.8929 21.625C31.8929 22.5972 32.2321 23.5486 32.9107 24.4792C33.5893 25.4097 34.6071 26.3194 35.9643 27.2083C36.1905 27.375 36.3601 27.5556 36.4732 27.75C36.5863 27.9444 36.6429 28.1389 36.6429 28.3333C36.6429 28.5556 36.575 28.7778 36.4393 29C36.3036 29.2222 36.0774 29.4028 35.7607 29.5417ZM9.29643 29.5417C9.025 29.6806 8.74226 29.7917 8.44821 29.875C8.15417 29.9583 7.82619 30 7.46429 30C7.10238 30 6.74048 29.9514 6.37857 29.8542C6.01667 29.7569 5.7 29.625 5.42857 29.4583C3.57381 28.2361 2.20536 26.9931 1.32321 25.7292C0.441071 24.4653 0 23.125 0 21.7083C0 20.6806 0.24881 19.5833 0.746429 18.4167C1.24405 17.25 2.10357 15.7778 3.325 14C4.36548 12.4167 5.08929 11.2083 5.49643 10.375C5.90357 9.54167 6.10714 8.76389 6.10714 8.04167C6.10714 7.09722 5.76786 6.20139 5.08929 5.35417C4.41071 4.50694 3.34762 3.68056 1.9 2.875C1.58333 2.70833 1.35714 2.52083 1.22143 2.3125C1.08571 2.10417 1.01786 1.88889 1.01786 1.66667C1.01786 1.44444 1.08571 1.23611 1.22143 1.04167C1.35714 0.847222 1.5381 0.666667 1.76429 0.5C2.03571 0.333333 2.34107 0.208333 2.68036 0.125C3.01964 0.0416667 3.37024 0 3.73214 0C4.09405 0 4.43333 0.0416667 4.75 0.125C5.06667 0.208333 5.36071 0.319444 5.63214 0.458333C7.62262 1.59722 9.10417 2.78472 10.0768 4.02083C11.0494 5.25694 11.5357 6.58333 11.5357 8C11.5357 8.97222 11.3095 9.99306 10.8571 11.0625C10.4048 12.1319 9.59048 13.5278 8.41429 15.25C7.28333 16.9167 6.51429 18.1944 6.10714 19.0833C5.7 19.9722 5.49643 20.8194 5.49643 21.625C5.49643 22.5972 5.82441 23.5486 6.48036 24.4792C7.13631 25.4097 8.14286 26.3194 9.5 27.2083C9.72619 27.375 9.89583 27.5556 10.0089 27.75C10.122 27.9444 10.1786 28.1389 10.1786 28.3333C10.1786 28.5556 10.1107 28.7778 9.975 29C9.83929 29.2222 9.6131 29.4028 9.29643 29.5417Z" fill="#C76B0A"/>
</svg>
